<?xml version="1.0" encoding="UTF-8"?>
<svg xmlns="http://www.w3.org/2000/svg" viewBox="0 0 84.94 100">
  <path d="M79,6c-3.96-4-9.86-6-17.69-6h-30.35v76.3c0,3.64-1.61,5.46-4.83,5.46-1.69,0-2.9-.53-3.66-1.58-.75-1.04-1.13-2.44-1.13-4.16v-23.65H0v24.83c0,4.96,1.17,9.13,3.52,12.54,2.35,3.4,5.53,5.96,9.54,7.68,3.92,1.69,8.24,2.55,13,2.58.1.01.21.01.31.01h34.2c9.03,0,15.35-2.57,18.96-7.73,3.61-5.15,5.41-12.45,5.41-21.93V23.52c0-7.69-1.97-13.53-5.94-17.52ZM63.04,76.99c0,3.55-2.01,5.34-6.01,5.34h-3.77V17.5h2.42c2.96,0,4.94.49,5.9,1.44.97.97,1.46,3.12,1.46,6.45v51.59Z"/>
</svg>